<?xml version="1.0" standalone="no"?>
<!DOCTYPE svg PUBLIC "-//W3C//DTD SVG 20010904//EN"
 "http://www.w3.org/TR/2001/REC-SVG-20010904/DTD/svg10.dtd">
<svg version="1.0" xmlns="http://www.w3.org/2000/svg"
 width="300.000000pt" height="300.000000pt" viewBox="0 0 300.000000 300.000000"
 preserveAspectRatio="xMidYMid meet">
<metadata>
Created by potrace 1.15, written by Peter Selinger 2001-2017
</metadata>
<g transform="translate(0.000000,300.000000) scale(0.100000,-0.100000)"
fill="#000000" stroke="none">
<path d="M1361 2848 c-184 -183 -261 -330 -261 -498 0 -159 51 -262 207 -417
95 -95 113 -118 113 -143 0 -24 -7 -35 -35 -51 -47 -28 -75 -77 -77 -133 l-1
-45 -128 -75 c-132 -78 -147 -84 -166 -65 -6 6 -28 15 -49 19 -152 35 -263
-150 -161 -266 17 -20 41 -40 54 -45 23 -8 23 -11 23 -162 l0 -154 -37 -24
c-60 -39 -78 -72 -78 -138 1 -48 6 -65 28 -95 41 -52 79 -69 148 -64 37 3 65
11 78 22 19 18 23 16 148 -55 70 -40 131 -77 135 -83 4 -6 8 -29 8 -51 0 -96
104 -171 199 -145 74 20 117 72 130 158 l6 46 127 73 126 74 34 -21 c96 -58
230 6 245 118 9 64 -19 126 -73 163 l-44 30 0 147 0 147 39 22 c45 26 81 90
81 145 0 27 6 40 26 52 23 16 29 16 74 1 27 -9 79 -17 114 -17 138 -1 226 84
271 261 15 55 15 65 2 85 -20 30 -76 47 -182 53 -84 4 -93 3 -144 -24 -73 -37
-109 -85 -136 -179 -17 -59 -28 -80 -48 -92 -25 -15 -29 -15 -58 2 -40 24
-114 24 -162 2 l-37 -18 -130 73 c-128 73 -130 75 -130 109 0 52 -39 121 -82
149 -31 20 -38 30 -38 57 0 21 7 38 19 46 42 29 139 125 180 177 203 259 157
539 -137 828 -110 108 -113 108 -221 1z m168 -1204 c28 -36 26 -60 -8 -95 -35
-34 -59 -36 -95 -8 -31 24 -36 81 -9 111 26 29 87 24 112 -8z m-138 -189 l30
-16 -3 -155 -3 -155 -30 -19 -30 -18 -132 76 c-132 76 -133 77 -133 114 0 36
1 37 128 111 70 41 131 76 135 76 4 1 21 -6 38 -14z m328 -61 c130 -76 131
-76 131 -113 0 -36 -1 -37 -125 -109 -69 -39 -130 -72 -135 -72 -6 0 -24 7
-40 15 l-30 16 0 152 0 152 28 17 c15 9 30 17 34 17 3 1 65 -33 137 -75z
m-739 -64 c56 -56 -14 -155 -83 -119 -50 27 -60 70 -26 113 26 33 79 36 109 6z
m1090 0 c25 -25 26 -71 1 -101 -26 -33 -86 -32 -113 1 -24 29 -19 87 9 107 26
20 80 16 103 -7z m-888 -253 c118 -70 123 -74 126 -108 l3 -36 -136 -78 c-134
-77 -137 -78 -163 -62 l-27 16 -3 153 c-2 148 -2 153 20 170 13 10 31 18 40
18 9 0 72 -33 140 -73z m761 49 c25 -24 26 -26 26 -163 0 -76 -3 -143 -7 -148
-4 -6 -19 -16 -34 -24 -25 -13 -33 -10 -155 61 l-128 74 -3 41 -3 41 123 71
c68 39 130 71 139 71 9 0 28 -11 42 -24z m-418 -106 c28 -31 24 -79 -9 -107
-33 -28 -56 -29 -90 -2 -31 24 -36 81 -9 111 23 25 84 24 108 -2z m-135 -195
l30 -16 0 -153 c0 -152 0 -154 -25 -170 -13 -9 -30 -16 -37 -15 -7 0 -69 33
-138 73 l-125 72 0 39 0 39 125 72 c69 40 129 73 133 73 4 1 21 -6 37 -14z
m330 -57 l129 -73 0 -40 0 -40 -130 -74 -131 -74 -34 16 -34 17 0 155 0 154
28 15 c15 8 31 15 35 16 5 0 66 -33 137 -72z m-745 -63 c49 -48 20 -125 -47
-125 -60 0 -100 69 -65 112 33 42 78 48 112 13z m1098 -6 c50 -61 -16 -145
-89 -114 -51 21 -60 80 -18 122 20 20 31 24 57 19 18 -3 40 -16 50 -27z m-547
-310 c41 -45 6 -122 -55 -122 -44 0 -71 28 -71 73 0 70 79 101 126 49z"/>
</g>
</svg>
